Cover: 
http://imgh.us/oWmD9ctt.jpeg

Info:

Format : AVI
Format/Info : Audio Video Interleave
Format profile : OpenDML
File size : 1.40 GiB
Duration : 1h 28mn
Overall bit rate : 2 253 Kbps
Writing application : MEncoder version Beta 4.4.5 building on 20110111

Video
ID : 0
Format : MPEG-4 Visual
Format profile : Simple@L1
Format settings, BVOP : No
Format settings, QPel : No
Format settings, GMC : No warppoints
Format settings, Matrix : Default (H.263)
Codec ID : DX50
Codec ID/Hint : DivX 5
Duration : 1h 28mn
Bit rate : 1 798 Kbps
Width : 720 pixels
Height : 404 pixels
Display aspect ratio : 16:9
Frame rate : 29.970 fps
Color space : YUV
Chroma subsampling : 4:2:0
Bit depth : 8 bits
Scan type : Progressive
Compression mode : Lossy
Bits/(Pixel*Frame) : 0.206
Stream size : 1.12 GiB (80%)
Writing library : DigiArty AV Encoder Core

Audio
ID : 1
Format : AC-3
Format/Info : Audio Coding 3
Mode extension : CM (complete main)
Format settings, Endianness : Big
Codec ID : 2000
Duration : 1h 28mn
Bit rate mode : Constant
Bit rate : 448 Kbps
Channel(s) : 6 channels
Channel positions : Front: L C R, Side: L R, LFE
Sampling rate : 48.0 KHz
Bit depth : 16 bits
Compression mode : Lossy
Stream size : 285 MiB (20%)
Alignment : Split accross interleaves
Interleave, duration : 500 ms (14.98 video frames)
Interleave, preload duration : 500 ms


SCREENS: 
http://imgh.us/Meeting_Evil_2012_DVDRip_XviD_-DTeCH-002.jpg 
http://imgh.us/Meeting_Evil_2012_DVDRip_XviD_-DTeCH-003.jpg 
http://imgh.us/Meeting_Evil_2012_DVDRip_XviD_-DTeCH-004.jpg 
http://imgh.us/Meeting_Evil_2012_DVDRip_XviD_-DTeCH-005.jpg 
http://imgh.us/Meeting_Evil_2012_DVDRip_XviD_-DTeCH-012.jpg 
http://imgh.us/Meeting_Evil_2012_DVDRip_XviD_-DTeCH-013.jpg 
http://imgh.us/Meeting_Evil_2012_DVDRip_XviD_-DTeCH-015.jpg 
http://imgh.us/Meeting_Evil_2012_DVDRip_XviD_-DTeCH-016.jpg 
http://imgh.us/Meeting_Evil_2012_DVDRip_XviD_-DTeCH-018.jpg




